<?xml version="1.0" standalone="no"?>
<!DOCTYPE svg PUBLIC "-//W3C//DTD SVG 20010904//EN"
 "http://www.w3.org/TR/2001/REC-SVG-20010904/DTD/svg10.dtd">
<svg version="1.0" xmlns="http://www.w3.org/2000/svg"
 width="421.000000pt" height="421.000000pt" viewBox="0 0 421.000000 421.000000"
 preserveAspectRatio="xMidYMid meet">
<metadata>
Created by potrace 1.14, written by Peter Selinger 2001-2017
</metadata>
<g transform="translate(0.000000,421.000000) scale(0.100000,-0.100000)"
fill="#000000" stroke="none">
<path d="M2074 3799 c-64 -8 -154 -37 -174 -56 -8 -7 -24 -21 -36 -31 -29 -24
-44 -55 -39 -83 2 -13 5 -44 7 -68 l3 -44 -57 -13 c-51 -12 -146 -50 -158 -63
-3 -3 -22 -15 -42 -25 -42 -21 -98 -78 -98 -99 0 -8 -26 -34 -58 -59 -85 -68
-118 -104 -133 -151 -7 -23 -16 -44 -19 -47 -3 -3 -18 -30 -34 -61 -21 -41
-28 -74 -31 -125 -1 -38 -5 -79 -9 -91 -43 -158 -49 -344 -16 -532 6 -30 8
-56 5 -59 -2 -2 -25 9 -51 27 -26 17 -49 29 -53 28 -75 -34 -95 -70 -95 -171
1 -50 11 -107 35 -191 19 -66 34 -124 34 -130 0 -5 -16 -11 -35 -12 -19 0 -43
-1 -53 -2 -10 -1 -30 -13 -44 -27 l-26 -26 8 -181 c8 -221 10 -259 19 -412 4
-66 9 -160 11 -209 l3 -89 -59 -77 c-32 -43 -59 -83 -59 -89 0 -6 -4 -11 -10
-11 -5 0 -10 -7 -10 -15 0 -8 -3 -15 -8 -15 -7 0 -67 -119 -65 -130 0 -3 -3
-16 -8 -29 -5 -13 -12 -40 -15 -60 -3 -20 -7 -46 -9 -58 -3 -21 -1 -21 178
-26 231 -6 2227 -6 2449 0 l168 5 -5 31 c-11 65 -28 113 -61 180 -31 62 -102
185 -114 197 -3 3 -13 20 -23 38 -16 28 -18 47 -13 130 4 53 8 149 11 212 3
63 7 144 10 180 8 105 19 352 18 394 -2 57 -34 86 -101 88 -29 2 -52 5 -52 8
0 3 7 28 16 55 9 28 17 55 18 60 1 6 8 30 15 55 47 163 30 278 -45 318 -22 12
-70 -4 -93 -31 -24 -29 -42 -21 -36 16 3 17 8 44 11 60 14 84 19 256 9 332 -4
28 -15 88 -25 135 -10 47 -18 105 -18 130 1 38 -11 68 -66 173 -37 70 -82 142
-100 160 -38 37 -87 77 -97 77 -4 0 -17 19 -29 42 -12 23 -29 48 -38 56 -32
25 -124 84 -136 86 -6 1 -20 7 -31 13 -11 6 -24 11 -28 11 -5 -1 -32 9 -61 22
l-53 22 8 37 c17 74 12 105 -25 138 -51 47 -97 67 -181 80 -16 2 -34 5 -40 7
-5 1 -33 -1 -61 -5z"/>
</g>
</svg>
